<?xml version="1.0"?>
<svg xmlns="http://www.w3.org/2000/svg" xmlns:xlink="http://www.w3.org/1999/xlink" version="1.1" id="Capa_1" x="0px" y="0px" viewBox="0 0 514.56 514.56" style="enable-background:new 0 0 514.56 514.56;" xml:space="preserve" width="512px" height="512px"><g><g>
	<g>
		<circle cx="256" cy="231.68" r="51.2" data-original="#000000" class="active-path" data-old_color="#b3cde0" fill="#b3cde0"/>
	</g>
</g><g>
	<g>
		<path d="M501.76,229.12l-46.08-10.24c-5.12-28.16-15.36-53.76-30.72-74.24l25.6-40.96c2.56-5.12,2.56-10.24-2.56-15.36    l-23.04-23.04c-5.12-5.12-10.24-5.12-15.36-2.56l-40.96,23.04c-20.48-15.36-46.08-25.6-74.24-30.72L284.16,8.96    c-2.56-2.56-7.68-7.68-12.8-7.68h-30.72c-5.12,0-10.24,5.12-12.8,10.24L217.6,57.6c-28.16,5.12-53.76,15.36-76.8,30.72l-38.4-25.6    c-5.12-2.56-12.8-2.56-15.36,2.56L64,88.32c-5.12,2.56-5.12,10.24-2.56,15.36l23.04,40.96c-15.36,23.04-25.6,48.64-30.72,74.24    l-43.52,10.24C5.12,231.68,0,236.8,0,241.92v30.72c0,5.12,5.12,10.24,10.24,12.8l46.08,12.8c5.12,28.16,15.36,53.76,30.72,74.24    l-25.6,38.4c-2.56,5.12-2.56,10.24,2.56,15.36l23.04,23.04c5.12,5.12,10.24,5.12,15.36,2.56l40.96-23.04    c23.04,15.36,46.08,25.6,74.24,30.72l10.24,46.08c2.56,2.56,7.68,7.68,12.8,7.68h30.72c5.12,0,10.24-5.12,12.8-10.24l10.24-46.08    c28.16-5.12,53.76-15.36,74.24-30.72l40.96,25.6c5.12,2.56,12.8,2.56,15.36-2.56L448,426.24c5.12-5.12,5.12-10.24,2.56-15.36    l-23.04-40.96c15.36-23.04,25.6-46.08,30.72-74.24l46.08-10.24c5.12,0,10.24-7.68,10.24-12.8v-30.72    C512,236.8,506.88,231.68,501.76,229.12z M330.24,364.8c-10.24-33.28-38.4-56.32-74.24-56.32c-33.28,0-64,23.04-74.24,53.76    C148.48,339.2,128,300.8,128,257.28c0-71.68,58.88-128,128-128C389.12,129.28,427.52,308.48,330.24,364.8z" data-original="#000000" class="active-path" data-old_color="#b3cde0" fill="#b3cde0"/>
	</g>
</g></g> </svg>
